<svg xmlns="http://www.w3.org/2000/svg" viewBox="0 0 1024 1024"><path d="M306.7,105.86l-159-60.45A36.28,36.28,0,0,0,98.56,79.33V940.26a36.29,36.29,0,0,0,48.8,34.06L306.7,915.77Z"/><path d="M728.82,266.37,528.26,190.11q.4,321.83.8,643.95L728.44,760.8a36.29,36.29,0,0,0,23.77-34.06V300.29A36.29,36.29,0,0,0,728.82,266.37Z"/><path d="M528.49,136.89,358.66,57.53A36.3,36.3,0,0,0,307,90.41v15.45l221.56,84.25Q528.53,163.49,528.49,136.89Z"/><path d="M529.36,834.06,307,915.77v25.31a36.29,36.29,0,0,0,51.47,33l171-78.73Q529.4,864.7,529.36,834.06Z"/><path d="M925.92,286.85a26.35,26.35,0,0,0-12.6-22.62c-112.52-68.59-231.72-133-345.23-201a26.38,26.38,0,0,0-40,22.64l.06,52L815.14,272a36.28,36.28,0,0,1,20.93,32.88V731.73a36.29,36.29,0,0,1-21.11,33L529.12,896.32q0,29.52.08,59.06c0,20.75,22.88,33.32,40.45,22.27,112.82-70.9,232.72-140.39,344.25-211.56A26.32,26.32,0,0,0,926.05,744C926.67,594.25,925.31,436.6,925.92,286.85Z"/></svg>